<?xml version="1.0" encoding="UTF-8" standalone="no"?>
<!-- Generator: Adobe Illustrator 16.0.0, SVG Export Plug-In . SVG Version: 6.00 Build 0)  -->

<svg
   xmlns:dc="http://purl.org/dc/elements/1.1/"
   xmlns:cc="http://creativecommons.org/ns#"
   xmlns:rdf="http://www.w3.org/1999/02/22-rdf-syntax-ns#"
   xmlns:svg="http://www.w3.org/2000/svg"
   xmlns="http://www.w3.org/2000/svg"
   xmlns:xlink="http://www.w3.org/1999/xlink"
   xmlns:sodipodi="http://sodipodi.sourceforge.net/DTD/sodipodi-0.dtd"
   xmlns:inkscape="http://www.inkscape.org/namespaces/inkscape"
   version="1.1"
   id="Layer_1"
   x="0px"
   y="0px"
   width="97px"
   height="97px"
   viewBox="0 0 97 97"
   enable-background="new 0 0 97 97"
   xml:space="preserve"
   sodipodi:docname="GitIcon - Copy.svg"
   inkscape:version="0.92.3 (2405546, 2018-03-11)"
   inkscape:export-filename="C:\_git\PsGitShortcuts\art\PsGitShortcutsIcon.png"
   inkscape:export-xdpi="17.290001"
   inkscape:export-ydpi="17.290001"><metadata
   id="metadata11"><rdf:RDF><cc:Work
       rdf:about=""><dc:format>image/svg+xml</dc:format><dc:type
         rdf:resource="http://purl.org/dc/dcmitype/StillImage" /></cc:Work></rdf:RDF></metadata><defs
   id="defs9"><linearGradient
     inkscape:collect="always"
     id="linearGradient4533"><stop
       style="stop-color:#56c0ef;stop-opacity:1"
       offset="0"
       id="stop4529" /><stop
       style="stop-color:#396bbc;stop-opacity:1"
       offset="1"
       id="stop4531" /></linearGradient><linearGradient
     inkscape:collect="always"
     xlink:href="#linearGradient4533"
     id="linearGradient4535"
     x1="31.798"
     y1="16.715"
     x2="60.213985"
     y2="84.463982"
     gradientUnits="userSpaceOnUse" /><clipPath
     id="clipPath18"
     clipPathUnits="userSpaceOnUse"><path
       inkscape:connector-curvature="0"
       id="path16"
       d="M 0,612 H 792 V 0 H 0 Z" /></clipPath><clipPath
     id="clipPath106"
     clipPathUnits="userSpaceOnUse"><path
       inkscape:connector-curvature="0"
       id="path104"
       d="m 455.241,397.254 -42.29,-28.417 c -1.251,-0.84 -1.583,-2.534 -0.743,-3.784 v 0 l 4.821,-7.173 c 0.839,-1.251 2.533,-1.584 3.783,-0.744 v 0 l 42.291,28.418 c 1.25,0.839 1.582,2.534 0.743,3.784 v 0 l -4.821,7.173 c -0.526,0.784 -1.388,1.207 -2.266,1.207 v 0 c -0.523,0 -1.052,-0.15 -1.518,-0.464" /></clipPath><clipPath
     id="clipPath134"
     clipPathUnits="userSpaceOnUse"><path
       inkscape:connector-curvature="0"
       id="path132"
       d="M 0,612 H 792 V 0 H 0 Z" /></clipPath></defs><sodipodi:namedview
   pagecolor="#ffffff"
   bordercolor="#666666"
   borderopacity="1"
   objecttolerance="10"
   gridtolerance="10"
   guidetolerance="10"
   inkscape:pageopacity="0"
   inkscape:pageshadow="2"
   inkscape:window-width="2481"
   inkscape:window-height="1411"
   id="namedview7"
   showgrid="false"
   inkscape:zoom="3.440767"
   inkscape:cx="51.76917"
   inkscape:cy="51.047354"
   inkscape:window-x="2551"
   inkscape:window-y="-9"
   inkscape:window-maximized="1"
   inkscape:current-layer="g4" />
<g
   id="g4">
	<path
   fill="#F05133"
   d="M92.71,44.408L52.591,4.291c-2.31-2.311-6.057-2.311-8.369,0l-8.33,8.332L46.459,23.19   c2.456-0.83,5.272-0.273,7.229,1.685c1.969,1.97,2.521,4.81,1.67,7.275l10.186,10.185c2.465-0.85,5.307-0.3,7.275,1.671   c2.75,2.75,2.75,7.206,0,9.958c-2.752,2.751-7.208,2.751-9.961,0c-2.068-2.07-2.58-5.11-1.531-7.658l-9.5-9.499v24.997   c0.67,0.332,1.303,0.774,1.861,1.332c2.75,2.75,2.75,7.206,0,9.959c-2.75,2.749-7.209,2.749-9.957,0c-2.75-2.754-2.75-7.21,0-9.959   c0.68-0.679,1.467-1.193,2.307-1.537V36.369c-0.84-0.344-1.625-0.853-2.307-1.537c-2.083-2.082-2.584-5.14-1.516-7.698   L31.798,16.715L4.288,44.222c-2.311,2.313-2.311,6.06,0,8.371l40.121,40.118c2.31,2.311,6.056,2.311,8.369,0L92.71,52.779   C95.021,50.468,95.021,46.719,92.71,44.408z"
   id="path2"
   style="fill:url(#linearGradient4535);fill-opacity:1"
   inkscape:export-xdpi="485.60498"
   inkscape:export-ydpi="485.60498" />
<g
   id="g5024"
   transform="matrix(0.92068941,-0.04825128,0.0490883,0.93666068,-2.0346019,3.2336929)"
   inkscape:export-xdpi="485.60498"
   inkscape:export-ydpi="485.60498"><path
     sodipodi:nodetypes="ccccccccccccccccccccccccccccccc"
     d="M 14.540972,-6.6096895 C 13.919917,-5.1051279 13.295798,-3.607906 12.070998,-2.5489482 10.999517,-1.6207593 9.6721151,-1.2012489 8.4163431,-0.854703 5.2253538,0.0257257 2.4390687,1.7895969 0.48645152,4.9233225 -1.1186066,7.4996423 -1.9866093,10.565443 -1.943509,13.52632 c 0.048097,3.316204 1.84770465,5.79076 2.68660451,8.770873 1.01578919,3.612827 0.60981519,8.522038 -1.85051771,11.816654 -1.2205585,1.635757 -2.3012053,3.401393 -3.0002467,5.351077 -0.9940186,2.770709 -1.0566182,5.835753 -0.1598109,8.415176 0.5878058,1.692398 1.4948846,3.050322 1.7196397,4.933068 0.184367,1.539976 0.057179,3.13808 -0.1464964,4.714249 -0.096616,0.746928 -0.171819,1.492185 -0.2566349,2.240555 -0.021747,0.193188 -0.00247,1.092245 -0.1400528,1.239404 l 2.95952718,-3.04691 c 0.1585466,-0.16228 0.31053338,-0.333399 0.4550874,-0.511319 0.59175414,-0.728783 1.05671242,-1.577002 1.36082432,-2.477285 0.3110914,-0.92381 0.3770116,-1.867116 0.5395098,-2.811219 0.1080412,-0.628722 0.2261133,-1.295335 0.4949931,-1.886463 0.1134878,-0.250301 0.2606322,-0.487381 0.4589382,-0.665167 0.7539137,-0.67254 1.715535,-0.286908 2.5307276,-0.77648 1.1218727,-0.673947 1.3628437,-1.970147 1.7712468,-3.157218 0.4441825,-1.289866 2.3687659,-5.362569 3.4022888,-6.175637 v 0 c -4.4660482,-11.13071 1.664017,-23.059885 1.664017,-23.059885 0,0 -6.1300652,11.929175 -1.664017,23.059885 L 47.779816,6.660116 c 0,0 1.078902,-0.9430893 1.079339,-0.9441077 3.449428,-3.0165447 4.969196,-8.1800659 3.759479,-12.4172393 -2.601135,-9.112739 -12.614213,-10.637935 -20.506643,-9.98613 -5.266574,0.433217 -12.132108,1.77226 -15.926537,6.8588899 -0.714867,0.9580819 -1.179673,2.0908431 -1.644482,3.2187816"
     style="fill:#662272;fill-opacity:1;fill-rule:nonzero;stroke:none;stroke-width:1.02654076"
     id="path312-8"
     inkscape:connector-curvature="0" /><path
     d="m 47.780118,6.6598837 c 0,0 6.646931,-17.8552327 -10.319742,-20.0909577 0,0 12.619965,5.0545332 10.319742,20.0909577"
     style="fill:#a81890;fill-opacity:1;fill-rule:nonzero;stroke:none;stroke-width:1.02654076"
     id="path420-3"
     inkscape:connector-curvature="0" /><path
     d="m 36.212914,-5.6468481 c 0,0 10.317824,-2.2738239 11.566726,12.3068862 0,0 -1.418575,-6.62781636 -11.566726,-12.3068862"
     style="fill:#a81890;fill-opacity:1;fill-rule:nonzero;stroke:none;stroke-width:1.02654076"
     id="path424-6"
     inkscape:connector-curvature="0" /><path
     d="m -0.62821901,40.206333 c -0.0501944,0.114698 -0.0982026,0.231538 -0.14490015,0.347735 -0.93699694,2.347941 -1.04300504,5.142451 0.19692188,7.034791 -0.42429292,-1.557224 -0.2395181,-3.337976 0.31460896,-4.966451 0.76356161,-2.24267 2.23051812,-4.016312 3.41067692,-6.016541 1.2054839,-2.040003 2.2666941,-4.194879 3.0236946,-6.448798 1.8682879,-5.558991 0.8990744,-11.965281 4.1572818,-17.080433 1.23307,-1.937773 2.891946,-3.5725039 4.767863,-4.6754426 2.06683,-1.2127732 4.13953,-1.2561943 6.190781,-0.5494005 2.970009,1.0234276 5.31668,3.3708331 8.360011,4.2159451 5.272395,1.462976 11.814545,0.125158 18.131576,-5.4075371 0,0 -13.244008,7.1985881 -20.357938,1.6760542 C 24.202466,5.836382 20.791652,3.4318753 16.622053,3.2130205 12.494409,2.9976826 9.0079737,5.4559318 7.1499689,9.8151257 4.6608429,15.651664 5.397429,21.796725 4.5672735,27.806687 4.1846263,30.575445 3.4732734,33.200909 2.0036101,35.63275 1.0950054,37.139431 0.07318667,38.59156 -0.62821901,40.206333"
     style="fill:#a81890;fill-opacity:1;fill-rule:nonzero;stroke:none;stroke-width:1.02654076"
     id="path432-0"
     inkscape:connector-curvature="0" /></g></g>
</svg>